# xmcd
#
# Track frame offsets: 
#        150
#        18026
#        50441
#        52994
#        67971
#        80168
#        112368
#        128489
#        140740
#        151387
#        170376
#        189769
#
# Disc length: 2838 seconds
#
# Revision: 0
# Processed by: cddbd v1.5.2PL0 Copyright (c) Steve Scherf et al.
# Submitted via: ExactAudioCopy v0.95b3
#
DISCID=9b0b140c
DTITLE=Flo and Eddie  - History of Flo and Eddie - Disc 2  FLAC
DYEAR=1900
DGENRE=
TTITLE0=Best Part of Breaking Up
TTITLE1=Just Another Town
TTITLE2=Talking
TTITLE3=Afterglow
TTITLE4=You're A Lady
TTITLE5=Marmendy Mill
TTITLE6=Illegal, Immoral and Fattening
TTITLE7=Rebecca
TTITLE8=Let Me Make Love to You
TTITLE9=Mama Open Up
TTITLE10=Keep It Warm
TTITLE11=Moving Targets
EXTD=
EXTT0=
EXTT1=
EXTT2=
EXTT3=
EXTT4=
EXTT5=
EXTT6=
EXTT7=
EXTT8=
EXTT9=
EXTT10=
EXTT11=
PLAYORDER=
